<svg viewBox="0 0 134.4132 108.4153" x="0" y="0" fill="none" xmlns="http://www.w3.org/2000/svg"><path id="Vector" d="M4.4886,0.70761l-3.782,3.77647M4.4886,26.5135l-3.782,3.7765M4.4886,52.3194l-3.782,3.7764M4.4886,78.1253l-3.782,3.7764M4.4886,103.9316l-3.782,3.776M30.3326,0.70761l-3.782,3.77647M30.3326,26.5135l-3.782,3.7765M30.3326,52.3194l-3.782,3.7764M30.3326,78.1253l-3.782,3.7764M30.3326,103.9316l-3.782,3.776M56.1756,0.70761l-3.782,3.77647M56.1756,26.5135l-3.782,3.7765M56.1756,52.3194l-3.782,3.7764M56.1756,78.1253l-3.782,3.7764M56.1756,103.9316l-3.782,3.776M82.0196,0.70761l-3.782,3.77647M82.0196,26.5135l-3.782,3.7765M82.0196,52.3194l-3.782,3.7764M82.0196,78.1253l-3.782,3.7764M82.0196,103.9316l-3.782,3.776M107.8626,0.70761l-3.782,3.77647M107.8626,26.5135l-3.782,3.7765M107.8626,52.3194l-3.782,3.7764M107.8626,78.1253l-3.782,3.7764M107.8626,103.9316l-3.782,3.776M133.7066,0.70761l-3.782,3.77647M133.7066,26.5135l-3.782,3.7765M133.7066,52.3194l-3.782,3.7764M133.7066,78.1253l-3.782,3.7764M133.7066,103.9316l-3.782,3.776" stroke="#6C7A89" stroke-width="2" xmlns="http://www.w3.org/2000/svg"/></svg>